<svg width="12" height="12" viewBox="0 0 12 12" fill="none" xmlns="http://www.w3.org/2000/svg">
<path d="M5 6.49998C5.43448 7.08083 6.09981 7.44433 6.82332 7.49615C7.54684 7.54797 8.25718 7.28299 8.77 6.76998L10.27 5.26998C11.2174 4.28904 11.2039 2.72977 10.2395 1.76544C9.27521 0.801102 7.71595 0.787553 6.735 1.73498L5.875 2.58998" stroke="white" stroke-width="1.5" stroke-linecap="round" stroke-linejoin="round"/>
<path d="M7 5.50012C6.56552 4.91927 5.90019 4.55577 5.17667 4.50395C4.45316 4.45214 3.74282 4.71712 3.23 5.23012L1.73 6.73012C0.782569 7.71107 0.796118 9.27033 1.76045 10.2347C2.72479 11.199 4.28405 11.2126 5.265 10.2651L6.12 9.41012" stroke="white" stroke-width="1.5" stroke-linecap="round" stroke-linejoin="round"/>
</svg>
